#
#
#

mtllib syringe.mtl


#
#  Mesh
#
g  Mesh


#
#  Mesh_mat0
#
usemtl  Mesh_mat0

v 0.694971 -0.534069 6.707855
v 0.991421 -0.020602 6.707855
v 0.398520 -0.020601 6.707854
v 1.287871 0.492865 6.707850
v 0.694971 0.492866 6.707855
v 1.584321 -0.020602 6.707853
v 1.287871 -0.534069 6.707850
v 0.586582 -0.020602 6.175357
v 0.789001 -0.371202 6.175357
v 0.398520 -0.020602 6.175353
v 0.694970 -0.534069 6.175357
v 1.193840 0.329999 6.175357
v 0.789002 0.329999 6.175357
v 1.287871 0.492865 6.175357
v 0.694971 0.492866 6.175357
v 1.193840 -0.371202 6.175357
v 1.396259 -0.020602 6.175357
v 1.287871 -0.534069 6.175357
v 1.584321 -0.020602 6.175356
v 1.396259 -0.020602 6.175357
v 1.193840 0.329999 6.175357
v 1.584321 -0.020602 6.175356
v 1.287871 0.492865 6.175357
v 0.789002 0.329999 6.175357
v 0.586582 -0.020602 6.175357
v 0.694971 0.492866 6.175357
v 0.398520 -0.020602 6.175353
v 0.789001 -0.371202 6.175357
v 1.193840 -0.371202 6.175357
v 0.694970 -0.534069 6.175357
v 1.287871 -0.534069 6.175357
v 0.637181 0.592961 0.559274
v 0.615797 0.629999 0.522240
v 0.282940 -0.020601 0.559274
v 0.240172 -0.020601 0.522241
v 0.615797 0.629999 0.522240
v 0.637181 0.592961 0.559274
v 1.367045 0.629999 0.522244
v 1.345661 0.592960 0.559277
v 1.367045 0.629999 0.522244
v 1.345661 0.592960 0.559277
v 1.742669 -0.020601 0.522243
v 1.699901 -0.020601 0.559277
v 1.345661 0.592960 0.188851
v 1.367045 0.629999 0.225895
v 1.699901 -0.020601 0.188849
v 1.742669 -0.020601 0.225893
v 0.615797 0.629999 0.225895
v 0.637181 0.592961 0.188846
v 0.240172 -0.020601 0.225895
v 0.282940 -0.020601 0.188846
v 0.282940 -0.020601 0.559274
v 0.240172 -0.020601 0.522241
v 0.637181 -0.634164 0.559274
v 0.615796 -0.671202 0.522240
v 0.615796 -0.671202 0.225895
v 0.637180 -0.634164 0.188846
v 0.637181 -0.634164 0.559274
v 0.615796 -0.671202 0.522240
v 1.345661 -0.634163 0.559277
v 1.367045 -0.671202 0.522244
v 0.615796 -0.671202 0.225895
v 1.367045 -0.671202 0.225899
v 1.345661 -0.634164 0.188849
v 1.345661 -0.634163 0.559277
v 1.367045 -0.671202 0.522244
v 1.699901 -0.020601 0.559277
v 1.742669 -0.020601 0.522243
v 0.991421 -0.020601 0.188845
v 1.193840 0.329999 0.594334
v 1.214080 0.365055 0.559277
v 0.789002 0.329999 0.594329
v 0.768762 0.365056 0.559273
v 1.214080 0.365055 0.559277
v 1.193840 0.329999 0.594334
v 1.436739 -0.020601 0.559277
v 1.396259 -0.020601 0.594329
v 1.214080 -0.406258 0.559277
v 1.193840 -0.371202 0.594334
v 1.214080 -0.406258 0.559277
v 1.193840 -0.371202 0.594334
v 0.768761 -0.406259 0.559273
v 0.789001 -0.371202 0.594329
v 0.768761 -0.406259 0.559273
v 0.789001 -0.371202 0.594329
v 0.546102 -0.020601 0.559274
v 0.586582 -0.020601 0.594330
v 0.768762 0.365056 0.559273
v 0.789002 0.329999 0.594329
v 1.193840 0.329999 6.175357
v 1.396259 -0.020602 6.175357
v 1.193840 -0.371202 6.175357
v 1.193840 -0.371202 6.175357
v 0.789001 -0.371202 6.175357
v 1.193840 -0.371202 0.594334
v 0.586582 -0.020602 6.175357
v 0.789002 0.329999 6.175357
v 0.768762 0.365056 0.559273
v 1.214080 0.365055 0.559277
v 0.637181 0.592961 0.559274
v 1.345661 0.592960 0.559277
v 0.546102 -0.020601 0.559274
v 0.282940 -0.020601 0.559274
v 0.768761 -0.406259 0.559273
v 0.637181 -0.634164 0.559274
v 1.214080 -0.406258 0.559277
v 1.345661 -0.634163 0.559277
v 1.436739 -0.020601 0.559277
v 1.699901 -0.020601 0.559277
v 1.014542 0.019437 16.307127
v 0.968301 0.019436 16.307129
v 0.991421 -0.020602 16.307125
v 0.945179 -0.020607 16.307129
v 0.968299 -0.060653 16.307129
v 1.014541 -0.060645 16.307127
v 1.037663 -0.020596 16.307127
v 1.035594 0.055911 13.344565
v 0.947250 0.055909 13.344567
v 1.014542 0.019437 16.307127
v 0.903076 -0.020606 13.344567
v 0.947247 -0.097113 13.344567
v 0.968299 -0.060653 16.307129
v 1.035592 -0.097112 13.344565
v 1.014541 -0.060645 16.307127
v 1.079766 -0.020599 13.344565
v 1.037663 -0.020596 16.307127
v 1.035594 0.055911 13.344565
v 1.014542 0.019437 16.307127
v 1.321782 0.551601 6.620459
v 1.374547 0.642992 6.529068
v 0.661059 0.551601 6.620459
v 0.608294 0.642993 6.529068
v 1.374547 0.642992 6.529068
v 1.321782 0.551601 6.620459
v 1.757673 -0.020602 6.529067
v 1.652144 -0.020602 6.620458
v 0.661059 0.551601 6.620459
v 0.608294 0.642993 6.529068
v 0.330697 -0.020602 6.620461
v 0.225168 -0.020602 6.529069
v 0.330697 -0.020602 6.620461
v 0.225168 -0.020602 6.529069
v 0.661059 -0.592805 6.620459
v 0.608294 -0.684196 6.529068
v 0.661059 -0.592805 6.620459
v 0.608294 -0.684196 6.529068
v 1.321782 -0.592805 6.620459
v 1.374547 -0.684196 6.529068
v 1.321782 -0.592805 6.620459
v 1.374547 -0.684196 6.529068
v 1.652144 -0.020602 6.620458
v 1.757673 -0.020602 6.529067
v 1.321782 0.551601 11.427617
v 1.281652 0.482094 11.536584
v 1.652144 -0.020602 11.427617
v 1.571884 -0.020602 11.536584
v 0.701189 0.482094 11.536586
v 0.661059 0.551601 11.427621
v 0.410957 -0.020602 11.536586
v 0.330697 -0.020602 11.427621
v 0.701189 -0.523298 11.536586
v 0.661059 -0.592805 11.427621
v 1.281652 -0.523298 11.536584
v 1.321782 -0.592805 11.427617
v 1.281652 -0.523298 11.536584
v 1.321782 -0.592805 11.427617
v 1.557693 0.960210 6.529067
v 1.610457 1.051601 6.437675
v 0.425149 0.960210 6.529069
v 0.372384 1.051601 6.437678
v 2.229494 -0.020602 6.437675
v 2.123964 -0.020602 6.529067
v -0.141123 -0.020601 6.529069
v -0.246653 -0.020601 6.437678
v 0.425148 -1.001413 6.529069
v 0.372384 -1.092805 6.437678
v 1.557692 -1.001413 6.529067
v 1.610457 -1.092805 6.437675
v 1.610457 1.051601 6.254856
v 1.557693 0.960210 6.163465
v 0.372384 1.051601 6.254858
v 0.425149 0.960210 6.163467
v 1.557693 0.960210 6.163465
v 1.610457 1.051601 6.254856
v 2.123964 -0.020602 6.163465
v 2.229494 -0.020602 6.254856
v 0.372384 1.051601 6.254858
v 0.425149 0.960210 6.163467
v -0.246653 -0.020601 6.254858
v -0.141123 -0.020601 6.163467
v -0.246653 -0.020601 6.254858
v -0.141123 -0.020601 6.163467
v 0.372384 -1.092805 6.254858
v 0.425148 -1.001413 6.163467
v 0.372384 -1.092805 6.254858
v 0.425148 -1.001413 6.163467
v 1.610457 -1.092805 6.254856
v 1.557692 -1.001413 6.163465
v 1.610457 -1.092805 6.254856
v 1.557692 -1.001413 6.163465
v 2.229494 -0.020602 6.254856
v 2.123964 -0.020602 6.163465
v 1.321782 -0.592805 6.620459
v 0.696344 0.490486 6.163466
v 1.286497 0.490486 6.163466
v 0.401267 -0.020602 6.163466
v 0.696344 0.490486 6.163466
v 0.696344 -0.531690 6.163466
v 0.401267 -0.020602 6.163466
v 1.286497 -0.531690 6.163466
v 0.696344 -0.531690 6.163466
v 1.581574 -0.020602 6.163466
v 1.286497 -0.531690 6.163466
v 1.286497 0.490486 6.163466
v 1.581574 -0.020602 6.163466
v 1.093328 0.155907 11.717834
v 1.108828 0.182754 11.675746
v 0.889513 0.155907 11.717836
v 0.874013 0.182754 11.675750
v 1.108828 0.182754 11.675746
v 1.093328 0.155907 11.717834
v 1.226236 -0.020602 11.675746
v 1.195235 -0.020602 11.717834
v 0.889513 0.155907 11.717836
v 0.874013 0.182754 11.675750
v 0.787606 -0.020602 11.717836
v 0.756606 -0.020602 11.675750
v 0.889513 -0.197111 11.717836
v 0.874013 -0.223958 11.675750
v 0.889513 -0.197111 11.717836
v 0.874013 -0.223958 11.675750
v 1.093328 -0.197111 11.717834
v 1.108828 -0.223958 11.675746
v 1.093328 -0.197111 11.717834
v 1.108828 -0.223958 11.675746
v 1.093328 0.155912 13.309264
v 1.072948 0.120613 13.344564
v 1.195235 -0.020599 13.309264
v 1.154476 -0.020599 13.344564
v 1.072948 0.120613 13.344564
v 1.093328 0.155912 13.309264
v 0.909894 0.120608 13.344567
v 0.889513 0.155907 13.309268
v 0.909894 0.120608 13.344567
v 0.828366 -0.020607 13.344567
v 0.787606 -0.020607 13.309268
v 0.909893 -0.161814 13.344567
v 0.889513 -0.197114 13.309268
v 0.909893 -0.161814 13.344567
v 0.889513 -0.197114 13.309268
v 1.072948 -0.161812 13.344564
v 1.093328 -0.197111 13.309264
v 1.072948 -0.161812 13.344564
v 1.093328 -0.197111 13.309264
v 1.093328 0.155907 11.717834
v 1.035594 0.055911 13.344565
v 0.947250 0.055909 13.344567
v 0.828366 -0.020607 13.344567
v 0.903076 -0.020606 13.344567
v 0.947247 -0.097113 13.344567
v 1.035592 -0.097112 13.344565
v 1.154476 -0.020599 13.344564
v 1.079766 -0.020599 13.344565
v 0.410957 -0.020602 11.536586
v 0.756606 -0.020602 11.675750
v 0.701189 0.482094 11.536586
v 1.281652 0.482094 11.536584
v 1.571884 -0.020602 11.536584
v 1.226236 -0.020602 11.675746
vn 0.000000 -0.000000 1.000000
vn 0.000010 0.000010 1.000000
vn 0.000010 -0.000010 1.000000
vn 0.000020 0.000000 -1.000000
vn 0.000000 0.000000 -1.000000
vn -0.000010 0.000000 -1.000000
vn -0.866027 -0.499998 -0.000000
vn 0.000000 1.000000 0.000000
vn 0.866027 -0.499998 -0.000000
vn 0.866027 0.499998 0.000000
vn -0.866027 0.499998 0.000000
vn 0.000000 -1.000000 -0.000000
vn -0.612332 0.353531 0.707153
vn -0.612330 0.353520 0.707160
vn 0.000000 0.707062 0.707152
vn 0.612322 0.353531 0.707162
vn 0.612328 0.353529 0.707158
vn 0.612339 0.353529 0.707148
vn 0.612410 0.353600 -0.707051
vn 0.612419 0.353589 -0.707049
vn 0.612421 0.353581 -0.707051
vn 0.000000 0.707162 -0.707052
vn 0.000010 0.707197 -0.707017
vn 0.000010 0.707202 -0.707012
vn -0.612461 0.353611 -0.707001
vn -0.612459 0.353599 -0.707009
vn -0.612461 0.353591 -0.707011
vn -0.612322 -0.353531 0.707162
vn -0.612328 -0.353529 0.707158
vn -0.612332 -0.353531 0.707153
vn -0.612457 -0.353608 -0.707006
vn -0.612470 -0.353600 -0.707000
vn 0.000000 -0.707067 0.707147
vn 0.000000 -0.707052 0.707162
vn 0.000000 -0.707212 -0.707002
vn 0.000000 -0.707217 -0.706997
vn 0.612322 -0.353531 0.707162
vn 0.612339 -0.353529 0.707148
vn 0.612459 -0.353599 -0.707009
vn 0.612419 -0.353589 -0.707049
vn 0.000010 0.000010 -1.000000
vn 0.000010 0.000000 -1.000000
vn -0.000010 0.707122 0.707092
vn -0.000010 0.707117 0.707097
vn -0.000010 0.707102 0.707112
vn 0.612379 0.353559 0.707098
vn 0.612381 0.353550 0.707101
vn 0.612381 -0.353551 0.707101
vn 0.612387 -0.353548 0.707097
vn -0.000010 -0.707122 0.707092
vn -0.000010 -0.707102 0.707112
vn -0.612373 -0.353541 0.707113
vn -0.612370 -0.353550 0.707110
vn -0.612370 0.353550 0.707110
vn -0.612368 0.353559 0.707108
vn 0.000000 0.000010 1.000000
vt 0.075210 0.068230
vt 0.109070 0.103710
vt 0.122560 0.058420
vt 0.142330 0.140160
vt 0.156420 0.093940
vt 0.094130 0.150760
vt 0.062990 0.114340
vt 0.101600 0.005260
vt 0.069920 0.011300
vt 0.116560 0.015080
vt 0.063500 0.024410
vt 0.199800 0.147710
vt 0.207570 0.117000
vt 0.184500 0.155600
vt 0.200760 0.101970
vt 0.022980 0.151450
vt 0.042060 0.176350
vt 0.026960 0.135230
vt 0.058690 0.181250
vt 0.120440 0.204950
vt 0.150510 0.196030
vt 0.104910 0.196010
vt 0.158490 0.182470
vt 0.190900 0.049100
vt 0.168520 0.026290
vt 0.190450 0.066550
vt 0.152150 0.024180
vt 0.017090 0.064130
vt 0.010220 0.094850
vt 0.032190 0.058100
vt 0.019160 0.108150
vt 0.422480 0.732020
vt 0.418900 0.740850
vt 0.482580 0.698680
vt 0.491270 0.700120
vt 0.398330 0.773530
vt 0.392940 0.778750
vt 0.397080 0.869170
vt 0.391680 0.863380
vt 0.407980 0.896990
vt 0.410380 0.903860
vt 0.503780 0.949310
vt 0.496900 0.951270
vt 0.434830 0.866320
vt 0.429310 0.869570
vt 0.512380 0.908370
vt 0.512550 0.914640
vt 0.431520 0.775010
vt 0.436840 0.778460
vt 0.510800 0.729080
vt 0.511200 0.735340
vt 0.529580 0.696980
vt 0.522460 0.698540
vt 0.612870 0.747180
vt 0.615110 0.754180
vt 0.594980 0.779740
vt 0.587070 0.781140
vt 0.632040 0.778890
vt 0.626340 0.773460
vt 0.632860 0.861750
vt 0.627550 0.867390
vt 0.592520 0.775470
vt 0.593430 0.866590
vt 0.587610 0.863740
vt 0.611990 0.901320
vt 0.614320 0.894250
vt 0.527990 0.946700
vt 0.520950 0.944940
vt 0.510860 0.822520
vt 0.199400 0.852890
vt 0.200010 0.850190
vt 0.158270 0.853070
vt 0.157400 0.850810
vt 0.161820 0.829430
vt 0.157990 0.825600
vt 0.119730 0.829430
vt 0.119730 0.825600
vt 0.077630 0.829430
vt 0.081460 0.825600
vt 0.202810 0.931720
vt 0.201980 0.929460
vt 0.159560 0.932340
vt 0.160090 0.929710
vt 0.282540 0.829430
vt 0.278710 0.825600
vt 0.240450 0.829430
vt 0.240450 0.825600
vt 0.198350 0.829430
vt 0.202180 0.825600
vt 0.157990 0.216460
vt 0.119730 0.216460
vt 0.081460 0.216460
vt 0.322900 0.216460
vt 0.278710 0.216460
vt 0.322900 0.825600
vt 0.240450 0.216460
vt 0.202180 0.216460
vt 0.152850 0.849490
vt 0.204690 0.848360
vt 0.140850 0.837180
vt 0.210820 0.832790
vt 0.130140 0.892140
vt 0.112800 0.896050
vt 0.154920 0.934100
vt 0.148120 0.949190
vt 0.207510 0.933200
vt 0.219340 0.945420
vt 0.230950 0.890120
vt 0.248100 0.886150
f 1/1/1 2/2/1 3/3/1
f 4/4/2 5/5/1 2/2/1
f 6/6/1 2/2/1 7/7/3
f 4/4/2 2/2/1 6/6/1
f 2/2/1 5/5/1 3/3/1
f 7/7/3 2/2/1 1/1/1
f 8/8/4 9/9/5 10/10/4
f 10/10/4 9/9/5 11/11/5
f 12/12/5 13/13/5 14/14/5
f 14/14/5 13/13/5 15/15/5
f 16/16/5 17/17/6 18/18/5
f 18/18/5 17/17/6 19/19/6
f 20/20/6 21/21/5 22/22/6
f 22/22/6 21/21/5 23/23/5
f 24/24/5 25/25/4 26/26/5
f 26/26/5 25/25/4 27/27/4
f 28/28/5 29/29/5 30/30/5
f 30/30/5 29/29/5 31/31/5
f 10/10/7 11/11/7 3/3/7
f 3/3/7 11/11/7 1/1/7
f 14/14/8 15/15/8 4/4/8
f 4/4/8 15/15/8 5/5/8
f 18/18/9 19/19/9 7/7/9
f 7/7/9 19/19/9 6/6/9
f 22/22/10 23/23/10 6/6/10
f 6/6/10 23/23/10 4/4/10
f 26/26/11 27/27/11 5/5/11
f 5/5/11 27/27/11 3/3/11
f 30/30/12 31/31/12 1/1/12
f 1/1/12 31/31/12 7/7/12
f 32/32/13 33/33/13 34/34/14
f 34/34/14 33/33/13 35/35/14
f 36/36/15 37/37/15 38/38/15
f 38/38/15 37/37/15 39/39/15
f 40/40/16 41/41/17 42/42/18
f 42/42/18 41/41/17 43/43/18
f 44/44/19 45/45/19 46/46/20
f 46/46/20 45/45/19 47/47/21
f 45/45/22 44/44/22 48/48/23
f 48/48/23 44/44/22 49/49/24
f 48/48/25 49/49/25 50/50/26
f 50/50/26 49/49/25 51/51/27
f 52/52/28 53/53/29 54/54/30
f 54/54/30 53/53/29 55/55/30
f 50/50/31 51/51/31 56/56/32
f 56/56/32 51/51/31 57/57/32
f 58/58/33 59/59/33 60/60/34
f 60/60/34 59/59/33 61/61/34
f 62/62/35 57/57/35 63/63/36
f 63/63/36 57/57/35 64/64/36
f 65/65/37 66/66/37 67/67/38
f 67/67/38 66/66/37 68/68/38
f 63/63/39 64/64/39 47/47/40
f 47/47/40 64/64/39 46/46/40
f 36/36/8 38/38/8 48/48/8
f 48/48/8 38/38/8 45/45/8
f 35/35/11 33/33/11 50/50/11
f 50/50/11 33/33/11 48/48/11
f 55/55/7 53/53/7 56/56/7
f 56/56/7 53/53/7 50/50/7
f 61/61/12 59/59/12 63/63/12
f 63/63/12 59/59/12 62/62/12
f 68/68/9 66/66/9 47/47/9
f 47/47/9 66/66/9 63/63/9
f 40/40/10 42/42/10 45/45/10
f 45/45/10 42/42/10 47/47/10
f 69/69/5 49/49/5 44/44/41
f 69/69/5 51/51/5 49/49/5
f 69/69/5 57/57/5 51/51/5
f 69/69/5 64/64/42 57/57/5
f 69/69/5 46/46/42 64/64/42
f 69/69/5 44/44/41 46/46/42
f 70/70/43 71/71/44 72/72/45
f 72/72/45 71/71/44 73/73/45
f 74/74/46 75/75/47 76/76/18
f 76/76/18 75/75/47 77/77/18
f 76/76/38 77/77/38 78/78/48
f 78/78/48 77/77/38 79/79/49
f 80/80/50 81/81/50 82/82/51
f 82/82/51 81/81/50 83/83/51
f 84/84/52 85/85/52 86/86/53
f 86/86/53 85/85/52 87/87/53
f 86/86/54 87/87/54 88/88/54
f 88/88/54 87/87/54 89/89/55
f 90/90/10 91/91/10 75/75/10
f 75/75/10 91/91/10 77/77/10
f 91/91/9 92/92/9 77/77/9
f 77/77/9 92/92/9 79/79/9
f 93/93/12 94/94/12 95/95/12
f 95/95/12 94/94/12 85/85/12
f 94/94/7 96/96/7 85/85/7
f 85/85/7 96/96/7 87/87/7
f 96/96/11 97/97/11 87/87/11
f 87/87/11 97/97/11 89/89/11
f 97/97/8 90/90/8 89/89/8
f 89/89/8 90/90/8 75/75/8
f 98/98/1 99/99/1 100/100/1
f 100/100/1 99/99/1 101/101/1
f 102/102/1 98/98/1 103/103/1
f 103/103/1 98/98/1 100/100/1
f 104/104/1 102/102/1 105/105/56
f 105/105/56 102/102/1 103/103/1
f 106/106/1 104/104/1 107/107/1
f 107/107/1 104/104/1 105/105/56
f 108/108/1 106/106/1 109/109/1
f 109/109/1 106/106/1 107/107/1
f 99/99/1 108/108/1 101/101/1
f 101/101/1 108/108/1 109/109/1

#
#  Mesh_mat1
#
usemtl  Mesh_mat1

v 0.694971 -0.534069 6.707855
v 0.991421 -0.020602 6.707855
v 0.398520 -0.020601 6.707854
v 1.287871 0.492865 6.707850
v 0.694971 0.492866 6.707855
v 1.584321 -0.020602 6.707853
v 1.287871 -0.534069 6.707850
v 0.586582 -0.020602 6.175357
v 0.789001 -0.371202 6.175357
v 0.398520 -0.020602 6.175353
v 0.694970 -0.534069 6.175357
v 1.193840 0.329999 6.175357
v 0.789002 0.329999 6.175357
v 1.287871 0.492865 6.175357
v 0.694971 0.492866 6.175357
v 1.193840 -0.371202 6.175357
v 1.396259 -0.020602 6.175357
v 1.287871 -0.534069 6.175357
v 1.584321 -0.020602 6.175356
v 1.396259 -0.020602 6.175357
v 1.193840 0.329999 6.175357
v 1.584321 -0.020602 6.175356
v 1.287871 0.492865 6.175357
v 0.789002 0.329999 6.175357
v 0.586582 -0.020602 6.175357
v 0.694971 0.492866 6.175357
v 0.398520 -0.020602 6.175353
v 0.789001 -0.371202 6.175357
v 1.193840 -0.371202 6.175357
v 0.694970 -0.534069 6.175357
v 1.287871 -0.534069 6.175357
v 0.637181 0.592961 0.559274
v 0.615797 0.629999 0.522240
v 0.282940 -0.020601 0.559274
v 0.240172 -0.020601 0.522241
v 0.615797 0.629999 0.522240
v 0.637181 0.592961 0.559274
v 1.367045 0.629999 0.522244
v 1.345661 0.592960 0.559277
v 1.367045 0.629999 0.522244
v 1.345661 0.592960 0.559277
v 1.742669 -0.020601 0.522243
v 1.699901 -0.020601 0.559277
v 1.345661 0.592960 0.188851
v 1.367045 0.629999 0.225895
v 1.699901 -0.020601 0.188849
v 1.742669 -0.020601 0.225893
v 0.615797 0.629999 0.225895
v 0.637181 0.592961 0.188846
v 0.240172 -0.020601 0.225895
v 0.282940 -0.020601 0.188846
v 0.282940 -0.020601 0.559274
v 0.240172 -0.020601 0.522241
v 0.637181 -0.634164 0.559274
v 0.615796 -0.671202 0.522240
v 0.615796 -0.671202 0.225895
v 0.637180 -0.634164 0.188846
v 0.637181 -0.634164 0.559274
v 0.615796 -0.671202 0.522240
v 1.345661 -0.634163 0.559277
v 1.367045 -0.671202 0.522244
v 0.615796 -0.671202 0.225895
v 1.367045 -0.671202 0.225899
v 1.345661 -0.634164 0.188849
v 1.345661 -0.634163 0.559277
v 1.367045 -0.671202 0.522244
v 1.699901 -0.020601 0.559277
v 1.742669 -0.020601 0.522243
v 0.991421 -0.020601 0.188845
v 1.193840 0.329999 0.594334
v 1.214080 0.365055 0.559277
v 0.789002 0.329999 0.594329
v 0.768762 0.365056 0.559273
v 1.214080 0.365055 0.559277
v 1.193840 0.329999 0.594334
v 1.436739 -0.020601 0.559277
v 1.396259 -0.020601 0.594329
v 1.214080 -0.406258 0.559277
v 1.193840 -0.371202 0.594334
v 1.214080 -0.406258 0.559277
v 1.193840 -0.371202 0.594334
v 0.768761 -0.406259 0.559273
v 0.789001 -0.371202 0.594329
v 0.768761 -0.406259 0.559273
v 0.789001 -0.371202 0.594329
v 0.546102 -0.020601 0.559274
v 0.586582 -0.020601 0.594330
v 0.768762 0.365056 0.559273
v 0.789002 0.329999 0.594329
v 1.193840 0.329999 6.175357
v 1.396259 -0.020602 6.175357
v 1.193840 -0.371202 6.175357
v 1.193840 -0.371202 6.175357
v 0.789001 -0.371202 6.175357
v 1.193840 -0.371202 0.594334
v 0.586582 -0.020602 6.175357
v 0.789002 0.329999 6.175357
v 0.768762 0.365056 0.559273
v 1.214080 0.365055 0.559277
v 0.637181 0.592961 0.559274
v 1.345661 0.592960 0.559277
v 0.546102 -0.020601 0.559274
v 0.282940 -0.020601 0.559274
v 0.768761 -0.406259 0.559273
v 0.637181 -0.634164 0.559274
v 1.214080 -0.406258 0.559277
v 1.345661 -0.634163 0.559277
v 1.436739 -0.020601 0.559277
v 1.699901 -0.020601 0.559277
v 1.014542 0.019437 16.307127
v 0.968301 0.019436 16.307129
v 0.991421 -0.020602 16.307125
v 0.945179 -0.020607 16.307129
v 0.968299 -0.060653 16.307129
v 1.014541 -0.060645 16.307127
v 1.037663 -0.020596 16.307127
v 1.035594 0.055911 13.344565
v 0.947250 0.055909 13.344567
v 1.014542 0.019437 16.307127
v 0.903076 -0.020606 13.344567
v 0.947247 -0.097113 13.344567
v 0.968299 -0.060653 16.307129
v 1.035592 -0.097112 13.344565
v 1.014541 -0.060645 16.307127
v 1.079766 -0.020599 13.344565
v 1.037663 -0.020596 16.307127
v 1.035594 0.055911 13.344565
v 1.014542 0.019437 16.307127
v 1.321782 0.551601 6.620459
v 1.374547 0.642992 6.529068
v 0.661059 0.551601 6.620459
v 0.608294 0.642993 6.529068
v 1.374547 0.642992 6.529068
v 1.321782 0.551601 6.620459
v 1.757673 -0.020602 6.529067
v 1.652144 -0.020602 6.620458
v 0.661059 0.551601 6.620459
v 0.608294 0.642993 6.529068
v 0.330697 -0.020602 6.620461
v 0.225168 -0.020602 6.529069
v 0.330697 -0.020602 6.620461
v 0.225168 -0.020602 6.529069
v 0.661059 -0.592805 6.620459
v 0.608294 -0.684196 6.529068
v 0.661059 -0.592805 6.620459
v 0.608294 -0.684196 6.529068
v 1.321782 -0.592805 6.620459
v 1.374547 -0.684196 6.529068
v 1.321782 -0.592805 6.620459
v 1.374547 -0.684196 6.529068
v 1.652144 -0.020602 6.620458
v 1.757673 -0.020602 6.529067
v 1.321782 0.551601 11.427617
v 1.281652 0.482094 11.536584
v 1.652144 -0.020602 11.427617
v 1.571884 -0.020602 11.536584
v 0.701189 0.482094 11.536586
v 0.661059 0.551601 11.427621
v 0.410957 -0.020602 11.536586
v 0.330697 -0.020602 11.427621
v 0.701189 -0.523298 11.536586
v 0.661059 -0.592805 11.427621
v 1.281652 -0.523298 11.536584
v 1.321782 -0.592805 11.427617
v 1.281652 -0.523298 11.536584
v 1.321782 -0.592805 11.427617
v 1.557693 0.960210 6.529067
v 1.610457 1.051601 6.437675
v 0.425149 0.960210 6.529069
v 0.372384 1.051601 6.437678
v 2.229494 -0.020602 6.437675
v 2.123964 -0.020602 6.529067
v -0.141123 -0.020601 6.529069
v -0.246653 -0.020601 6.437678
v 0.425148 -1.001413 6.529069
v 0.372384 -1.092805 6.437678
v 1.557692 -1.001413 6.529067
v 1.610457 -1.092805 6.437675
v 1.610457 1.051601 6.254856
v 1.557693 0.960210 6.163465
v 0.372384 1.051601 6.254858
v 0.425149 0.960210 6.163467
v 1.557693 0.960210 6.163465
v 1.610457 1.051601 6.254856
v 2.123964 -0.020602 6.163465
v 2.229494 -0.020602 6.254856
v 0.372384 1.051601 6.254858
v 0.425149 0.960210 6.163467
v -0.246653 -0.020601 6.254858
v -0.141123 -0.020601 6.163467
v -0.246653 -0.020601 6.254858
v -0.141123 -0.020601 6.163467
v 0.372384 -1.092805 6.254858
v 0.425148 -1.001413 6.163467
v 0.372384 -1.092805 6.254858
v 0.425148 -1.001413 6.163467
v 1.610457 -1.092805 6.254856
v 1.557692 -1.001413 6.163465
v 1.610457 -1.092805 6.254856
v 1.557692 -1.001413 6.163465
v 2.229494 -0.020602 6.254856
v 2.123964 -0.020602 6.163465
v 1.321782 -0.592805 6.620459
v 0.696344 0.490486 6.163466
v 1.286497 0.490486 6.163466
v 0.401267 -0.020602 6.163466
v 0.696344 0.490486 6.163466
v 0.696344 -0.531690 6.163466
v 0.401267 -0.020602 6.163466
v 1.286497 -0.531690 6.163466
v 0.696344 -0.531690 6.163466
v 1.581574 -0.020602 6.163466
v 1.286497 -0.531690 6.163466
v 1.286497 0.490486 6.163466
v 1.581574 -0.020602 6.163466
v 1.093328 0.155907 11.717834
v 1.108828 0.182754 11.675746
v 0.889513 0.155907 11.717836
v 0.874013 0.182754 11.675750
v 1.108828 0.182754 11.675746
v 1.093328 0.155907 11.717834
v 1.226236 -0.020602 11.675746
v 1.195235 -0.020602 11.717834
v 0.889513 0.155907 11.717836
v 0.874013 0.182754 11.675750
v 0.787606 -0.020602 11.717836
v 0.756606 -0.020602 11.675750
v 0.889513 -0.197111 11.717836
v 0.874013 -0.223958 11.675750
v 0.889513 -0.197111 11.717836
v 0.874013 -0.223958 11.675750
v 1.093328 -0.197111 11.717834
v 1.108828 -0.223958 11.675746
v 1.093328 -0.197111 11.717834
v 1.108828 -0.223958 11.675746
v 1.093328 0.155912 13.309264
v 1.072948 0.120613 13.344564
v 1.195235 -0.020599 13.309264
v 1.154476 -0.020599 13.344564
v 1.072948 0.120613 13.344564
v 1.093328 0.155912 13.309264
v 0.909894 0.120608 13.344567
v 0.889513 0.155907 13.309268
v 0.909894 0.120608 13.344567
v 0.828366 -0.020607 13.344567
v 0.787606 -0.020607 13.309268
v 0.909893 -0.161814 13.344567
v 0.889513 -0.197114 13.309268
v 0.909893 -0.161814 13.344567
v 0.889513 -0.197114 13.309268
v 1.072948 -0.161812 13.344564
v 1.093328 -0.197111 13.309264
v 1.072948 -0.161812 13.344564
v 1.093328 -0.197111 13.309264
v 1.093328 0.155907 11.717834
v 1.035594 0.055911 13.344565
v 0.947250 0.055909 13.344567
v 0.828366 -0.020607 13.344567
v 0.903076 -0.020606 13.344567
v 0.947247 -0.097113 13.344567
v 1.035592 -0.097112 13.344565
v 1.154476 -0.020599 13.344564
v 1.079766 -0.020599 13.344565
v 0.410957 -0.020602 11.536586
v 0.756606 -0.020602 11.675750
v 0.701189 0.482094 11.536586
v 1.281652 0.482094 11.536584
v 1.571884 -0.020602 11.536584
v 1.226236 -0.020602 11.675746
vn 0.000010 -0.000070 1.000000
vn 0.000070 -0.000070 1.000000
vn 0.000040 -0.000000 1.000000
vn 0.000080 -0.000000 1.000000
vn 0.000070 0.000070 1.000000
vn 0.000010 0.000060 1.000000
vn -0.000030 -0.000010 1.000000
vn -0.000030 0.999924 0.012310
vn -0.865968 0.499949 0.012310
vn -0.865932 0.500011 0.012310
vn -0.865956 -0.499968 0.012310
vn 0.000010 -0.999924 0.012310
vn 0.000160 -0.999924 0.012310
vn 0.865961 -0.499960 0.012310
vn 0.865965 0.499953 0.012310
vn 0.865961 0.499960 0.012310
vn 0.865891 0.500081 0.012310
vn 0.000000 0.707107 0.707107
vn 0.612370 0.353550 0.707110
vn -0.612370 0.353550 0.707110
vn -0.612368 0.353559 0.707108
vn -0.612370 -0.353550 0.707110
vn 0.000000 -0.707107 0.707107
vn 0.612370 -0.353550 0.707110
vn 0.730133 0.421541 0.537782
vn 0.730129 0.421550 0.537780
vn 0.000000 0.843084 0.537782
vn 0.000000 0.843079 0.537790
vn -0.730129 0.421539 0.537789
vn -0.730129 -0.421539 0.537789
vn 0.000000 -0.843079 0.537789
vn 0.000000 -0.843084 0.537782
vn 0.000000 -0.843087 0.537778
vn 0.730133 -0.421541 0.537782
vn -0.000000 0.707102 -0.707112
vn 0.612370 0.353550 -0.707110
vn -0.612370 0.353550 -0.707110
vn -0.612370 -0.353550 -0.707110
vn 0.000000 -0.707102 -0.707112
vn 0.612370 -0.353550 -0.707110
vn 0.000000 1.000000 0.000000
vn -0.866027 0.499998 0.000000
vn -0.866027 -0.499998 -0.000000
vn 0.000000 -1.000000 -0.000000
vn 0.866027 -0.499998 -0.000000
vn 0.866027 0.499998 0.000000
vn 0.000000 -0.000000 1.000000
vn -0.000000 0.000000 -1.000000
vn 0.000010 0.843079 0.537790
vn 0.730129 0.421539 0.537789
vn -0.730128 0.421529 0.537798
vn -0.730125 0.421537 0.537796
vn -0.730120 0.421540 0.537800
vn -0.730128 -0.421529 0.537798
vn 0.000010 -0.843075 0.537797
vn 0.000010 -0.843079 0.537789
vn 0.730129 -0.421539 0.537789
vn 0.612387 0.353548 0.707097
vn 0.612381 0.353550 0.707101
vn 0.612383 0.353562 0.707093
vn 0.612381 0.353570 0.707091
vn -0.000010 0.707112 0.707102
vn -0.612373 0.353541 0.707113
vn -0.612368 -0.353559 0.707108
vn 0.000020 -0.707112 0.707102
vn 0.612387 -0.353548 0.707097
vn 0.612381 -0.353551 0.707101
vn -0.000020 1.000000 0.000000
vn -0.000030 1.000000 0.000000
vn -0.866031 0.499991 0.000000
vn -0.866024 -0.500002 -0.000000
vn 0.000010 -1.000000 -0.000000
vn 0.866031 -0.499991 -0.000000
vn 0.866031 0.499991 0.000000
vn 0.000020 -0.000000 1.000000
vn 0.000010 -0.000000 1.000000
vn 0.000010 0.000010 1.000000
vn 0.000010 -0.000010 1.000000
vn 0.000020 -0.000010 1.000000
vn 0.000020 0.000010 1.000000
vn 0.163240 -0.336850 0.927300
vn 0.124850 -0.358091 0.925302
vn -0.210109 -0.309799 0.927297
vn -0.247690 -0.287170 0.925301
vn -0.373349 0.027060 0.927296
vn -0.372541 0.070930 0.925301
vn -0.163239 0.336859 0.927297
vn -0.124850 0.358091 0.925302
vn 0.210110 0.309790 0.927299
vn 0.247700 0.287161 0.925302
vn 0.373340 -0.027060 0.927300
vn 0.372541 -0.070930 0.925301
vt 0.772460 0.479610
vt 0.775780 0.485110
vt 0.778800 0.479640
vt 0.781750 0.485150
vt 0.785130 0.479680
vt 0.782000 0.474180
vt 0.775660 0.474140
vt 0.759630 0.890920
vt 0.770520 0.891020
vt 0.770380 0.484760
vt 0.781460 0.891040
vt 0.792430 0.890960
vt 0.787170 0.485130
vt 0.803360 0.890750
vt 0.792750 0.485020
vt 0.814210 0.890420
vt 0.798360 0.484840
vt 0.825040 0.889960
vt 0.803950 0.484620
vt 0.229020 0.568740
vt 0.220700 0.579720
vt 0.289190 0.567740
vt 0.297950 0.577750
vt 0.223270 0.866400
vt 0.229310 0.853970
vt 0.178740 0.794200
vt 0.193370 0.795910
vt 0.297480 0.849100
vt 0.303950 0.862210
vt 0.327850 0.788050
vt 0.341760 0.786160
vt 0.348780 0.566120
vt 0.340540 0.577200
vt 0.408550 0.564560
vt 0.417860 0.574020
vt 0.289720 0.729060
vt 0.298200 0.716940
vt 0.221670 0.732400
vt 0.214370 0.721190
vt 0.108500 0.569550
vt 0.100210 0.580410
vt 0.169090 0.569260
vt 0.178300 0.579140
vt 0.231820 0.127150
vt 0.231980 0.117110
vt 0.171180 0.126800
vt 0.171860 0.116820
vt 0.292520 0.117500
vt 0.292360 0.127530
vt 0.352890 0.117850
vt 0.352720 0.127980
vt 0.412390 0.118100
vt 0.412820 0.128530
vt 0.467870 0.118080
vt 0.473010 0.129270
vt 0.116040 0.115750
vt 0.110030 0.126190
vt 0.207070 0.896570
vt 0.201040 0.908390
vt 0.324770 0.889970
vt 0.331980 0.900870
vt 0.131540 0.799040
vt 0.144400 0.798290
vt 0.375740 0.785070
vt 0.388830 0.784350
vt 0.312630 0.685420
vt 0.318500 0.673490
vt 0.196180 0.692230
vt 0.188680 0.681310
vt 0.202520 0.926230
vt 0.211050 0.937510
vt 0.332240 0.918130
vt 0.325120 0.930340
vt 0.172940 0.918720
vt 0.186180 0.917000
vt 0.110570 0.819520
vt 0.117380 0.808070
vt 0.347090 0.907930
vt 0.360430 0.907860
vt 0.403890 0.792360
vt 0.412190 0.802650
vt 0.403550 0.774290
vt 0.409320 0.761270
vt 0.333500 0.664910
vt 0.347620 0.665190
vt 0.317550 0.656550
vt 0.310840 0.645180
vt 0.188480 0.664110
vt 0.193760 0.651670
vt 0.172420 0.674080
vt 0.158640 0.675940
vt 0.116180 0.791080
vt 0.109040 0.778800
vt 0.467820 0.564710
vt 0.299450 0.976840
vt 0.241270 0.979530
vt 0.439670 0.849090
vt 0.413750 0.901470
vt 0.400470 0.665090
vt 0.431150 0.714470
vt 0.220540 0.604970
vt 0.278930 0.601660
vt 0.081010 0.733950
vt 0.107160 0.681740
vt 0.118930 0.917850
vt 0.087870 0.868260
vt 0.449910 0.052620
vt 0.453680 0.048350
vt 0.431810 0.054240
vt 0.426490 0.051910
vt 0.793830 0.337240
vt 0.791030 0.332860
vt 0.772640 0.337240
vt 0.772640 0.332860
vt 0.696230 0.332860
vt 0.693440 0.337240
vt 0.714620 0.332860
vt 0.714620 0.337240
vt 0.733020 0.332860
vt 0.735810 0.337240
vt 0.432290 0.088160
vt 0.428640 0.092540
vt 0.450100 0.086290
vt 0.455450 0.088560
vt 0.754250 0.332860
vt 0.751450 0.337240
vt 0.791030 0.167040
vt 0.787360 0.163360
vt 0.772640 0.167040
vt 0.772640 0.163360
vt 0.677120 0.163360
vt 0.675000 0.167040
vt 0.694110 0.163360
vt 0.696230 0.167040
vt 0.699910 0.163360
vt 0.714630 0.163360
vt 0.714630 0.167040
vt 0.729340 0.163360
vt 0.733020 0.167040
vt 0.694110 0.133940
vt 0.696230 0.130260
vt 0.677120 0.133940
vt 0.674990 0.130260
vt 0.757930 0.163360
vt 0.754250 0.167040
vt 0.675000 0.332860
vt 0.681010 0.156620
vt 0.690220 0.156620
vt 0.702600 0.148650
vt 0.694820 0.148650
vt 0.690220 0.140680
vt 0.681010 0.140680
vt 0.668620 0.148650
vt 0.676410 0.148650
vt 0.384240 0.069710
vt 0.415880 0.072280
vt 0.413110 0.022270
vt 0.470450 0.023350
vt 0.498190 0.071110
vt 0.466520 0.068450
f 379/110/57 380/111/58 381/112/59
f 380/111/58 382/113/60 381/112/59
f 382/113/60 383/114/61 381/112/59
f 383/114/61 384/115/62 381/112/59
f 384/115/62 385/116/63 381/112/59
f 385/116/63 379/110/57 381/112/59
f 386/117/64 387/118/64 388/119/64
f 388/119/64 387/118/64 380/111/64
f 387/118/65 389/120/65 380/111/66
f 380/111/66 389/120/65 382/113/66
f 389/120/67 390/121/67 382/113/67
f 382/113/67 390/121/67 391/122/67
f 390/121/68 392/123/68 391/122/69
f 391/122/69 392/123/68 393/124/69
f 392/123/70 394/125/70 393/124/70
f 393/124/70 394/125/70 395/126/70
f 394/125/71 396/127/72 395/126/73
f 395/126/73 396/127/72 397/128/73
f 398/129/74 399/130/74 400/131/74
f 400/131/74 399/130/74 401/132/74
f 402/133/75 403/134/75 404/135/75
f 404/135/75 403/134/75 405/136/75
f 406/137/76 407/138/76 408/139/76
f 408/139/76 407/138/76 409/140/77
f 410/141/78 411/142/78 412/143/78
f 412/143/78 411/142/78 413/144/78
f 414/145/79 415/146/79 416/147/79
f 416/147/79 415/146/79 417/148/79
f 418/149/80 419/150/80 420/151/80
f 420/151/80 419/150/80 421/152/80
f 422/153/81 423/154/81 424/155/81
f 424/155/81 423/154/81 425/156/82
f 423/154/83 422/153/83 426/157/84
f 426/157/84 422/153/83 427/158/84
f 426/157/85 427/158/85 428/159/85
f 428/159/85 427/158/85 429/160/85
f 428/159/86 429/160/86 430/161/86
f 430/161/86 429/160/86 431/162/86
f 430/161/87 431/162/87 432/163/88
f 432/163/88 431/162/87 433/164/89
f 434/165/90 435/166/90 425/156/90
f 425/156/90 435/166/90 424/155/90
f 436/167/74 437/168/74 438/169/74
f 438/169/74 437/168/74 439/170/74
f 437/168/75 436/167/75 440/171/75
f 440/171/75 436/167/75 441/172/75
f 438/169/76 439/170/76 442/173/76
f 442/173/76 439/170/76 443/174/76
f 442/173/78 443/174/78 444/175/78
f 444/175/78 443/174/78 445/176/78
f 444/175/79 445/176/79 446/177/79
f 446/177/79 445/176/79 447/178/79
f 446/177/80 447/178/80 441/172/80
f 441/172/80 447/178/80 440/171/80
f 448/179/91 449/180/91 450/181/91
f 450/181/91 449/180/91 451/182/91
f 452/183/92 453/184/92 454/185/92
f 454/185/92 453/184/92 455/186/92
f 456/187/93 457/188/93 458/189/93
f 458/189/93 457/188/93 459/190/93
f 460/191/94 461/192/94 462/193/94
f 462/193/94 461/192/94 463/194/94
f 464/195/95 465/196/95 466/197/95
f 466/197/95 465/196/95 467/198/95
f 468/199/96 469/200/96 470/201/96
f 470/201/96 469/200/96 471/202/96
f 398/129/97 400/131/97 422/153/97
f 422/153/97 400/131/97 427/158/97
f 400/131/98 410/141/98 427/158/98
f 427/158/98 410/141/98 429/160/98
f 410/141/99 412/143/99 429/160/99
f 429/160/99 412/143/99 431/162/99
f 412/143/100 472/203/100 431/162/100
f 431/162/100 472/203/100 433/164/100
f 418/149/101 420/151/101 435/166/101
f 435/166/101 420/151/101 424/155/101
f 420/151/102 398/129/102 424/155/102
f 424/155/102 398/129/102 422/153/102
f 407/138/103 402/133/103 438/169/103
f 438/169/103 402/133/103 436/167/103
f 409/140/103 407/138/103 442/173/103
f 442/173/103 407/138/103 438/169/103
f 415/146/103 409/140/103 444/175/103
f 444/175/103 409/140/103 442/173/103
f 417/148/103 415/146/103 446/177/103
f 446/177/103 415/146/103 444/175/103
f 404/135/103 417/148/103 441/172/103
f 441/172/103 417/148/103 446/177/103
f 402/133/103 404/135/103 436/167/103
f 436/167/103 404/135/103 441/172/103
f 439/170/97 437/168/97 450/181/97
f 450/181/97 437/168/97 448/179/97
f 443/174/98 439/170/98 458/189/98
f 458/189/98 439/170/98 456/187/98
f 445/176/99 443/174/99 462/193/99
f 462/193/99 443/174/99 460/191/99
f 447/178/100 445/176/100 466/197/100
f 466/197/100 445/176/100 464/195/100
f 440/171/101 447/178/101 470/201/101
f 470/201/101 447/178/101 468/199/101
f 437/168/102 440/171/102 453/184/102
f 453/184/102 440/171/102 455/186/102
f 451/182/104 449/180/104 473/204/104
f 473/204/104 449/180/104 474/205/104
f 459/190/104 457/188/104 475/206/104
f 475/206/104 457/188/104 476/207/104
f 463/194/104 461/192/104 477/208/104
f 477/208/104 461/192/104 478/209/104
f 467/198/104 465/196/104 479/210/104
f 479/210/104 465/196/104 480/211/104
f 471/202/104 469/200/104 481/212/104
f 481/212/104 469/200/104 482/213/104
f 452/183/104 454/185/104 483/214/104
f 483/214/104 454/185/104 484/215/104
f 485/216/105 486/217/105 487/218/105
f 487/218/105 486/217/105 488/219/105
f 489/220/106 490/221/106 491/222/106
f 491/222/106 490/221/106 492/223/106
f 493/224/107 494/225/107 495/226/108
f 495/226/108 494/225/107 496/227/109
f 495/226/110 496/227/110 497/228/86
f 497/228/86 496/227/110 498/229/86
f 499/230/111 500/231/112 501/232/112
f 501/232/112 500/231/112 502/233/112
f 503/234/113 504/235/113 492/223/113
f 492/223/113 504/235/113 491/222/113
f 505/236/114 506/237/115 507/238/116
f 507/238/116 506/237/115 508/239/117
f 509/240/118 510/241/118 511/242/118
f 511/242/118 510/241/118 512/243/118
f 513/244/76 512/243/76 514/245/119
f 514/245/119 512/243/76 515/246/119
f 514/245/120 515/246/120 516/247/78
f 516/247/78 515/246/120 517/248/78
f 518/249/121 519/250/121 520/251/121
f 520/251/121 519/250/121 521/252/121
f 522/253/122 523/254/122 508/239/123
f 508/239/123 523/254/122 507/238/123
f 524/255/97 493/224/97 510/241/124
f 510/241/124 493/224/97 512/243/125
f 493/224/98 495/226/98 512/243/126
f 512/243/126 495/226/98 515/246/126
f 495/226/99 497/228/99 515/246/127
f 515/246/127 497/228/99 517/248/127
f 497/228/100 503/234/100 517/248/128
f 517/248/128 503/234/100 523/254/128
f 503/234/101 492/223/101 523/254/129
f 523/254/129 492/223/101 507/238/129
f 492/223/102 490/221/102 507/238/130
f 507/238/130 490/221/102 505/236/130
f 509/240/131 511/242/132 525/256/131
f 525/256/131 511/242/132 526/257/133
f 511/242/132 527/258/103 526/257/133
f 526/257/133 527/258/103 528/259/103
f 527/258/103 518/249/134 528/259/103
f 528/259/103 518/249/134 529/260/134
f 518/249/134 520/251/135 529/260/134
f 529/260/134 520/251/135 530/261/131
f 520/251/135 531/262/131 530/261/131
f 530/261/131 531/262/131 532/263/136
f 531/262/131 509/240/131 532/263/136
f 532/263/136 509/240/131 525/256/131
f 432/163/137 502/233/138 430/161/139
f 430/161/139 502/233/138 500/231/140
f 533/264/141 534/265/142 535/266/143
f 535/266/143 534/265/142 488/219/144
f 536/267/145 486/217/146 537/268/147
f 537/268/147 486/217/146 538/269/148
f 535/266/143 488/219/144 536/267/145
f 536/267/145 488/219/144 486/217/146
f 430/161/139 500/231/140 533/264/141
f 533/264/141 500/231/140 534/265/142
f 537/268/147 538/269/148 432/163/137
f 432/163/137 538/269/148 502/233/138
